<svg xmlns="http://www.w3.org/2000/svg" width="" height="300" viewBox="0 0 1090 3000" fill="none">    <g>        <path stroke="#FFFFFF" d="m147.88 372.45h1.9648v7.1016h-1.9648z"/>        <path stroke="#FFFFFF" d="m151.95 359.33h1.9648v33.348h-1.9648z"/>        <path stroke="#FFFFFF" d="m156.01 365.71h1.9648v20.59h-1.9648z"/>        <path stroke="#FFFFFF" d="m160.08 347.55h1.9648v56.902h-1.9648z"/>        <path stroke="#FFFFFF" d="m164.14 335.53h1.9648v80.949h-1.9648z"/>        <path stroke="#FFFFFF" d="m168.2 355.16h1.9648v41.691h-1.9648z"/>        <path stroke="#FFFFFF" d="m172.27 366.69h1.9648v18.629h-1.9648z"/>        <path stroke="#FFFFFF" d="m176.33 371.11h1.9648v9.7969h-1.9648z"/>        <path stroke="#FFFFFF" d="m180.4 355.4h1.9648v41.199h-1.9648z"/>        <path stroke="#FFFFFF" d="m184.46 338.96h1.9648v74.078h-1.9648z"/>        <path stroke="#FFFFFF" d="m188.53 357.36h1.9648v37.273h-1.9648z"/>        <path stroke="#FFFFFF" d="m192.59 367.43h1.9648v17.156h-1.9648z"/>        <path stroke="#FFFFFF" d="m196.66 358.59h1.9648v34.82h-1.9648z"/>        <path stroke="#FFFFFF" d="m200.72 367.18h1.9648v17.648h-1.9648z"/>        <path stroke="#FFFFFF" d="m204.79 364.97h1.9648v22.062h-1.9648z"/>        <path stroke="#FFFFFF" d="m208.85 369.39h1.9648v13.23h-1.9648z"/>        <path stroke="#FFFFFF" d="m212.91 362.76h1.9648v26.48h-1.9648z"/>        <path stroke="#FFFFFF" d="m216.98 347.55h1.9648v56.902h-1.9648z"/>        <path stroke="#FFFFFF" d="m221.04 326.45h1.9648v99.105h-1.9648z"/>        <path stroke="#FFFFFF" d="m225.11 313.2h1.9648v125.6h-1.9648z"/>        <path stroke="#FFFFFF" d="m229.17 319.09h1.9648v113.82h-1.9648z"/>        <path stroke="#FFFFFF" d="m233.23 334.55h1.9648v82.91h-1.9648z"/>        <path stroke="#FFFFFF" d="m237.3 347.55h1.9648v56.902h-1.9648z"/>        <path stroke="#FFFFFF" d="m241.36 329.88h1.9648v92.234h-1.9648z"/>        <path stroke="#FFFFFF" d="m245.43 342.4h1.9648v67.207h-1.9648z"/>        <path stroke="#FFFFFF" d="m249.49 317.37h1.9648v117.26h-1.9648z"/>        <path stroke="#FFFFFF" d="m253.56 332.59h1.9648v86.836h-1.9648z"/>        <path stroke="#FFFFFF" d="m257.62 347.55h1.9648v56.902h-1.9648z"/>        <path stroke="#FFFFFF" d="m261.69 360.07h1.9648v31.879h-1.9648z"/>        <path stroke="#FFFFFF" d="m265.75 336.27h1.9648v79.477h-1.9648z"/>        <path stroke="#FFFFFF" d="m269.82 341.91h1.9648v68.188h-1.9648z"/>        <path stroke="#FFFFFF" d="m273.88 358.84h1.9648v34.332h-1.9648z"/>        <path stroke="#FFFFFF" d="m277.95 362.76h1.9648v26.48h-1.9648z"/>        <path stroke="#FFFFFF" d="m282.01 368.16h1.9648v15.684h-1.9648z"/>        <path stroke="#FFFFFF" d="m286.07 357.61h1.9648v36.785h-1.9648z"/>        <path stroke="#FFFFFF" d="m290.14 329.39h1.9648v93.215h-1.9648z"/>        <path stroke="#FFFFFF" d="m294.2 339.45h1.9648v73.098h-1.9648z"/>        <path stroke="#FFFFFF" d="m298.27 369.63h1.9648v12.738h-1.9648z"/>        <path stroke="#FFFFFF" d="m306.39 347.55h1.9648v56.902h-1.9648z"/>        <path stroke="#FFFFFF" d="m302.33 360.8h1.9648v30.406h-1.9648z"/>        <path stroke="#FFFFFF" d="m314.52 362.27h1.9648v27.461h-1.9648z"/>        <path stroke="#FFFFFF" d="m318.59 368.65h1.9648v14.703h-1.9648z"/>        <path stroke="#FFFFFF" d="m310.46 361.54h1.9648v28.934h-1.9648z"/>        <path stroke="#FFFFFF" d="m322.65 361.04h1.9648v29.914h-1.9648z"/>        <path stroke="#FFFFFF" d="m326.71 354.91h1.9648v42.184h-1.9648z"/>        <path stroke="#FFFFFF" d="m330.78 358.59h1.9648v34.82h-1.9648z"/>        <path stroke="#FFFFFF" d="m334.84 353.93h1.9648v44.145h-1.9648z"/>        <path stroke="#FFFFFF" d="m338.91 366.44h1.9648v19.117h-1.9648z"/>        <path stroke="#FFFFFF" d="m342.97 369.88h1.9648v12.25h-1.9648z"/>        <path stroke="#FFFFFF" d="m347.04 372.82h1.9648v6.3594h-1.9648z"/>        <path stroke="#FFFFFF" d="m351.1 369.14h1.9648v13.723h-1.9648z"/>        <path stroke="#FFFFFF" d="m355.17 356.38h1.9648v39.238h-1.9648z"/>        <path stroke="#FFFFFF" d="m363.3 363.25h1.9648v25.496h-1.9648z"/>        <path stroke="#FFFFFF" d="m359.23 367.43h1.9648v17.156h-1.9648z"/>        <path stroke="#FFFFFF" d="m371.43 334.79h1.9648v82.418h-1.9648z"/>        <path stroke="#FFFFFF" d="m375.49 350.98h1.9648v50.035h-1.9648z"/>        <path stroke="#FFFFFF" d="m367.36 329.15h1.9648v93.707h-1.9648z"/>        <path stroke="#FFFFFF" d="m379.55 361.04h1.9648v29.914h-1.9648z"/>        <path stroke="#FFFFFF" d="m383.62 347.55h1.9648v56.902h-1.9648z"/>        <path stroke="#FFFFFF" d="m387.68 361.04h1.9648v29.914h-1.9648z"/>        <path stroke="#FFFFFF" d="m391.75 369.39h1.9648v13.23h-1.9648z"/>        <path stroke="#FFFFFF" d="m395.81 360.55h1.9648v30.895h-1.9648z"/>        <path stroke="#FFFFFF" d="m399.88 347.55h1.9648v56.902h-1.9648z"/>        <path stroke="#FFFFFF" d="m403.94 338.72h1.9648v74.57h-1.9648z"/>        <path stroke="#FFFFFF" d="m408 331.6h1.9648v88.801h-1.9648z"/>        <path stroke="#FFFFFF" d="m412.07 347.55h1.9648v56.902h-1.9648z"/>        <path stroke="#FFFFFF" d="m420.2 365.71h1.9648v20.59h-1.9648z"/>        <path stroke="#FFFFFF" d="m416.13 360.07h1.9648v31.879h-1.9648z"/>        <path stroke="#FFFFFF" d="m428.32 360.55h1.9648v30.895h-1.9648z"/>        <path stroke="#FFFFFF" d="m432.39 366.93h1.9648v18.137h-1.9648z"/>        <path stroke="#FFFFFF" d="m424.26 362.03h1.9648v27.953h-1.9648z"/>        <path stroke="#FFFFFF" d="m436.45 360.8h1.9648v30.406h-1.9648z"/>        <path stroke="#FFFFFF" d="m440.52 347.55h1.9648v56.902h-1.9648z"/>        <path stroke="#FFFFFF" d="m444.58 338.23h1.9648v75.551h-1.9648z"/>        <path stroke="#FFFFFF" d="m448.65 354.91h1.9648v42.184h-1.9648z"/>        <path stroke="#FFFFFF" d="m452.71 343.38h1.9648v65.246h-1.9648z"/>        <path stroke="#FFFFFF" d="m456.78 358.59h1.9648v34.82h-1.9648z"/>        <path stroke="#FFFFFF" d="m460.84 355.89h1.9648v40.219h-1.9648z"/>        <path stroke="#FFFFFF" d="m464.91 350.25h1.9648v51.504h-1.9648z"/>        <path stroke="#FFFFFF" d="m468.97 347.55h1.9648v56.902h-1.9648z"/>        <path stroke="#FFFFFF" d="m477.1 366.69h1.9648v18.629h-1.9648z"/>        <path stroke="#FFFFFF" d="m473.04 361.29h1.9648v29.422h-1.9648z"/>        <path stroke="#FFFFFF" d="m485.23 370.12h1.9648v11.758h-1.9648z"/>        <path stroke="#FFFFFF" d="m489.29 363.99h1.9648v24.027h-1.9648z"/>        <path stroke="#FFFFFF" d="m481.16 361.29h1.9648v29.422h-1.9648z"/>        <path stroke="#FFFFFF" d="m493.36 369.14h1.9648v13.723h-1.9648z"/>        <path stroke="#FFFFFF" d="m497.42 359.82h1.9648v32.367h-1.9648z"/>        <path stroke="#FFFFFF" d="m501.48 358.84h1.9648v34.332h-1.9648z"/>        <path stroke="#FFFFFF" d="m505.55 352.21h1.9648v47.578h-1.9648z"/>        <path stroke="#FFFFFF" d="m509.61 359.82h1.9648v32.367h-1.9648z"/>        <path stroke="#FFFFFF" d="m513.68 347.55h1.9648v56.902h-1.9648z"/>        <path stroke="#FFFFFF" d="m517.74 331.36h1.9648v89.289h-1.9648z"/>        <path stroke="#FFFFFF" d="m521.81 353.93h1.9648v44.145h-1.9648z"/>        <path stroke="#FFFFFF" d="m525.87 360.07h1.9648v31.879h-1.9648z"/>        <path stroke="#FFFFFF" d="m534 360.8h1.9648v30.406h-1.9648z"/>        <path stroke="#FFFFFF" d="m529.93 365.95h1.9648v20.102h-1.9648z"/>        <path stroke="#FFFFFF" d="m542.13 365.46h1.9648v21.082h-1.9648z"/>        <path stroke="#FFFFFF" d="m546.19 368.16h1.9648v15.684h-1.9648z"/>        <path stroke="#FFFFFF" d="m538.06 369.63h1.9648v12.738h-1.9648z"/>        <path stroke="#FFFFFF" d="m550.26 371.59h1.9648v8.8125h-1.9648z"/>        <path stroke="#FFFFFF" d="m554.32 314.43h1.9648v123.15h-1.9648z"/>        <path stroke="#FFFFFF" d="m558.39 322.03h1.9648v107.94h-1.9648z"/>        <path stroke="#FFFFFF" d="m562.45 305.35h1.9648v141.3h-1.9648z"/>        <path stroke="#FFFFFF" d="m566.52 315.65h1.9648v120.7h-1.9648z"/>        <path stroke="#FFFFFF" d="m570.58 326.7h1.9648v98.613h-1.9648z"/>        <path stroke="#FFFFFF" d="m574.64 339.21h1.9648v73.586h-1.9648z"/>        <path stroke="#FFFFFF" d="m578.71 354.42h1.9648v43.164h-1.9648z"/>        <path stroke="#FFFFFF" d="m582.77 365.46h1.9648v21.082h-1.9648z"/>        <path stroke="#FFFFFF" d="m590.9 364.72h1.9648v22.555h-1.9648z"/>        <path stroke="#FFFFFF" d="m586.84 361.54h1.9648v28.934h-1.9648z"/>        <path stroke="#FFFFFF" d="m599.03 360.55h1.9648v30.895h-1.9648z"/>        <path stroke="#FFFFFF" d="m603.09 369.39h1.9648v13.23h-1.9648z"/>        <path stroke="#FFFFFF" d="m594.96 369.14h1.9648v13.723h-1.9648z"/>    </g></svg>